# xmcd CD database file
#
# Track frame offsets:
#	150
#	23454
#	41843
#	73710
#	101728
#	133880
#	152386
#	186318
#	209940
#	235742
#	260566
#	292758
#
# Disc length: 4434 seconds
#
# Revision: 0
# Processed by: cddbd v1.5.2PL0 Copyright (c) Steve Scherf et al.
# Submitted via: CDex 1.51
#
DISCID=af11500c
DTITLE=Spirit of Life Ensemble - Planet Jazz
DYEAR=2009
DGENRE=Jazz
TTITLE0=Jeroboam
TTITLE1=Crocolyle
TTITLE2=Notes on a Ressurection
TTITLE3=Obama-Nation
TTITLE4=Walking Down JJ Avenue
TTITLE5=Funkin' for the Father
TTITLE6=My Friend and I Took a Walk
TTITLE7=In The Tradition
TTITLE8=Dreams for Sale
TTITLE9=Curtains # 2
TTITLE10=Eulipian's Lament
TTITLE11=Transvision
EXTD=YEAR: 2009
EXTT0=
EXTT1=
EXTT2=
EXTT3=
EXTT4=
EXTT5=
EXTT6=
EXTT7=
EXTT8=
EXTT9=
EXTT10=
EXTT11=
PLAYORDER=
